HIERARCHY
ROOT Hips
{
	OFFSET 0.00 0.00 0.00
	CHANNELS 6 Xposition Yposition Zposition Xrotation Zrotation Yrotation
	JOINT Spine
	{
		OFFSET 0.00000 1.76680 2.65019
		CHANNELS 3 Xrotation Zrotation Yrotation
		JOINT Spine1
		{
			OFFSET 0.00000 0.61360 3.47991
			CHANNELS 3 Xrotation Zrotation Yrotation
			JOINT Spine2
			{
				OFFSET 0.00000 0.30797 3.52015
				CHANNELS 3 Xrotation Zrotation Yrotation
				JOINT Spine3
				{
					OFFSET 0.00000 0.00000 3.53359
					CHANNELS 3 Xrotation Zrotation Yrotation
					JOINT Neck
					{
						OFFSET 0.00000 -1.32510 9.27568
						CHANNELS 3 Xrotation Zrotation Yrotation
						JOINT Head
						{
							OFFSET 0.00000 -0.84370 4.78487
							CHANNELS 3 Xrotation Zrotation Yrotation
							End Site
							{
								OFFSET 0.00000 -0.00000 5.72000
							}
						}
					}
					JOINT RightShoulder
					{
						OFFSET -1.21056 -2.01760 6.53702
						CHANNELS 3 Zrotation Xrotation Yrotation
						JOINT RightArm
						{
							OFFSET -6.01245 -0.00000 0.00000
							CHANNELS 3 Yrotation Zrotation Xrotation
							JOINT RightForeArm
							{
								OFFSET -11.72811 -0.00000 0.00000
								CHANNELS 3 Xrotation Yrotation Zrotation
								JOINT RightForeArmRoll
								{
									OFFSET -4.84160 -0.00000 0.00000
									CHANNELS 3 Xrotation Yrotation Zrotation
									JOINT RightHand
									{
										OFFSET -5.00396 -0.00000 0.00000
										CHANNELS 3 Xrotation Yrotation Zrotation
										JOINT RightHandEnd
										{
											OFFSET -2.83688 -0.00000 0.00000
											CHANNELS 3 Xrotation Yrotation Zrotation
											End Site
											{
												OFFSET -2.83688 -0.00000 0.00000
											}
										}
										JOINT RightHandThumb1
										{
											OFFSET -1.13475 -1.89125 -0.75650
											CHANNELS 3 Xrotation Yrotation Zrotation
											End Site
											{
												OFFSET -2.74021 -0.73424 0.00000
											}
										}
									}
								}
							}
						}
					}
					JOINT LeftShoulder
					{
						OFFSET 1.21056 -2.01760 6.53702
						CHANNELS 3 Zrotation Xrotation Yrotation
						JOINT LeftArm
						{
							OFFSET 6.01245 0.00000 0.00000
							CHANNELS 3 Yrotation Zrotation Xrotation
							JOINT LeftForeArm
							{
								OFFSET 11.72811 0.00000 0.00000
								CHANNELS 3 Xrotation Yrotation Zrotation
								JOINT LeftForeArmRoll
								{
									OFFSET 4.84160 0.00000 0.00000
									CHANNELS 3 Xrotation Yrotation Zrotation
									JOINT LeftHand
									{
										OFFSET 5.00396 0.00000 0.00000
										CHANNELS 3 Xrotation Yrotation Zrotation
										JOINT LeftHandEnd
										{
											OFFSET 2.83688 0.00000 0.00000
											CHANNELS 3 Xrotation Yrotation Zrotation
											End Site
											{
												OFFSET 2.83688 0.00000 0.00000
											}
										}
										JOINT LeftHandThumb1
										{
											OFFSET 1.13475 -1.89125 -0.75650
											CHANNELS 3 Xrotation Yrotation Zrotation
											End Site
											{
												OFFSET 2.74021 -0.73424 0.00000
											}
										}
									}
								}
							}
						}
					}
				}
			}
		}
	}
	JOINT RightUpLeg
	{
		OFFSET -3.59133 0.00000 -1.04915
		CHANNELS 3 Yrotation Zrotation Xrotation
		JOINT RightLeg
		{
			OFFSET 0.00000 0.00000 -15.86148
			CHANNELS 3 Xrotation Yrotation Zrotation
			JOINT RightFoot
			{
				OFFSET 0.00000 0.00000 -17.16446
				CHANNELS 3 Xrotation Zrotation Yrotation
				JOINT RightToeBase
				{
					OFFSET 0.00000 -6.77704 -2.46664
					CHANNELS 3 Yrotation Zrotation Xrotation
					End Site
					{
						OFFSET -0.00000 -2.90534 0.00000
					}
				}
			}
		}
	}
	JOINT LeftUpLeg
	{
		OFFSET 3.59133 0.00000 -1.04915
		CHANNELS 3 Yrotation Zrotation Xrotation
		JOINT LeftLeg
		{
			OFFSET 0.00000 0.00000 -15.86148
			CHANNELS 3 Xrotation Yrotation Zrotation
			JOINT LeftFoot
			{
				OFFSET 0.00000 0.00000 -17.16446
				CHANNELS 3 Xrotation Zrotation Yrotation
				JOINT LeftToeBase
				{
					OFFSET 0.00000 -6.77704 -2.46664
					CHANNELS 3 Yrotation Zrotation Xrotation
					End Site
					{
						OFFSET -0.00000 -2.90534 0.00000
					}
				}
			}
		}
	}
}
MOTION
Frames: 13
Frame Time: 0.008333
 -0.2667 38.2056 -0.9157 -89.6592 -0.1412 -0.1373 -0.3015 -0.0017 0.4302 -0.7350 -0.0060 0.1002 1.5172 0.2620 0.3653 0.1654 -0.0724 -0.4344 -1.2843 -0.1905 -0.0719 -1.0114 -1.0802 -0.2512 -0.4671 4.5302 -5.9750 -69.4275 -1.8705 19.7780 -0.0000 0.0000 31.1760 -5.0309 0.0000 -0.0000 -0.3226 5.4685 3.3816 -0.0000 0.0000 -0.0000 -0.0000 0.0000 -0.0000 2.3639 5.5602 5.6782 72.4365 -11.5855 36.8102 -0.0000 0.0000 -19.3893 3.6988 -0.0000 -0.0000 3.5218 -24.5334 8.4311 -0.0000 -0.0000 0.0000 0.0000 -0.0000 0.0000 4.1654 -9.6110 -0.4936 15.0774 -0.0000 0.0000 -15.0103 0.5158 -4.7092 -0.0000 0.0000 0.9255 -5.1295 -1.2555 0.9852 11.0571 0.0000 0.0000 -12.5820 3.5960 7.3748 -0.0000 0.0000 0.8062
 -0.2662 38.2017 -0.9121 -89.6264 -0.1366 -0.1505 -0.3162 -0.0054 0.4351 -0.7577 -0.0068 0.1123 1.5393 0.2223 0.3425 0.1693 -0.0682 -0.4191 -1.2705 -0.2149 -0.0252 -1.0573 -1.0258 -0.3207 -0.4344 4.6102 -6.0696 -69.3276 -1.7410 20.8744 -0.0000 -0.0000 31.1560 -4.5038 0.0000 -0.0000 -0.4202 7.8851 3.0600 -0.0000 0.0000 -0.0000 0.0000 -0.0000 -0.0000 2.4113 5.5343 5.6786 72.4261 -11.5755 36.8035 -0.0000 -0.0000 -19.4109 3.7446 0.0000 -0.0000 3.6874 -25.2083 8.6045 -0.0000 0.0000 -0.0000 -0.0000 -0.0000 -0.0000 4.1837 -9.6243 -0.5352 15.1029 0.0000 0.0000 -15.0216 0.5315 -4.7315 -0.0000 0.0000 0.9214 -5.1133 -1.2356 0.9536 11.0571 -0.0000 0.0000 -12.5837 3.5754 7.3784 -0.0000 0.0000 0.7878
 -0.2242 38.2069 -0.8494 -89.8926 -0.2234 -0.3107 -0.3015 0.0037 0.3708 -0.7442 -0.0016 0.0893 1.7193 0.2898 0.5213 0.1885 -0.0809 -0.3917 -1.2215 -0.1988 0.0183 -1.0477 -1.0444 -0.2979 -0.4150 4.6717 -5.9736 -69.3620 -1.7284 21.1003 -0.0000 0.0000 31.1334 -4.3415 -0.0000 -0.0000 -0.4454 8.3534 3.0631 -0.0000 0.0000 -0.0000 0.0000 0.0000 0.0000 2.4594 5.5687 5.6797 72.4739 -11.5694 36.8243 0.0000 -0.0000 -19.4146 3.7651 0.0000 -0.0000 3.6808 -25.1805 8.5980 0.0000 -0.0000 -0.0000 0.0000 -0.0000 -0.0000 4.5559 -10.0089 -0.1021 15.0064 0.0000 0.0000 -15.0545 1.0187 -4.9116 -0.0000 0.0000 0.8706 -4.8007 -1.6214 1.5678 10.6382 -0.0000 0.0000 -12.4674 4.0270 7.1118 -0.0000 0.0000 0.7976
 -0.2085 38.2119 -0.8204 -89.9960 -0.2478 -0.3648 -0.2892 0.0094 0.3483 -0.7286 0.0001 0.0739 1.7791 0.3251 0.5890 0.1920 -0.0874 -0.3844 -1.1989 -0.1847 0.0143 -1.0352 -1.0634 -0.2572 -0.4079 4.7103 -5.9137 -69.3851 -1.7300 21.0536 -0.0000 -0.0000 31.1362 -4.3477 0.0000 0.0000 -0.4463 8.2993 3.0887 -0.0000 0.0000 -0.0000 -0.0000 0.0000 -0.0000 2.4715 5.5951 5.7148 72.4674 -11.5847 36.8250 -0.0000 0.0000 -19.4065 3.7594 0.0000 0.0000 3.6809 -25.2300 8.5825 -0.0000 0.0000 0.0000 0.0000 -0.0000 0.0000 4.6905 -10.1517 0.0788 14.9644 0.0000 0.0000 -15.0722 1.1927 -4.9998 -0.0000 0.0000 0.9050 -4.6879 -1.8144 1.8205 10.4631 0.0000 0.0000 -12.4171 4.2392 7.0406 -0.0000 0.0000 0.7876
 -0.2118 38.2122 -0.8167 -89.9751 -0.2389 -0.3437 -0.2829 0.0103 0.3456 -0.7170 0.0004 0.0673 1.7491 0.3360 0.5881 0.1866 -0.0835 -0.3936 -1.1830 -0.1999 -0.0172 -1.0281 -1.0879 -0.2038 -0.4046 4.6950 -5.8898 -69.3976 -1.7721 20.8136 -0.0000 0.0000 31.1713 -4.5929 -0.0000 0.0000 -0.4269 7.9287 3.0919 -0.0000 0.0000 -0.0000 0.0000 -0.0000 -0.0000 2.4550 5.6014 5.7947 72.3850 -11.6083 36.7352 -0.0000 0.0000 -19.2745 -5.3197 -0.0000 0.0000 0.1879 -21.4186 0.5144 0.0000 0.0000 -0.0000 0.0000 -0.0000 0.0000 4.6508 -10.1225 0.0648 14.9645 0.0000 0.0000 -15.0750 1.1519 -4.9594 -0.0000 0.0000 0.9293 -4.7219 -1.7902 1.7957 10.4810 -0.0000 0.0000 -12.4260 4.2070 7.0367 -0.0000 0.0000 0.7806
 -0.2148 38.2091 -0.8151 -89.9467 -0.2385 -0.3362 -0.2777 0.0107 0.3524 -0.7053 0.0002 0.0639 1.7197 0.3350 0.5864 0.1800 -0.0845 -0.3930 -1.1914 -0.2006 -0.0176 -1.0173 -1.0914 -0.2261 -0.3785 4.6752 -5.9034 -69.3839 -1.8027 20.7540 -0.0000 0.0000 31.1753 -4.4060 0.0000 -0.0000 -0.4110 7.8430 3.0094 -0.0000 0.0000 -0.0000 0.0000 -0.0000 -0.0000 2.4732 5.5883 5.8041 72.3754 -11.6032 36.7057 -0.0000 0.0000 -19.2791 -5.3373 -0.0000 0.0000 0.1815 -21.4359 0.4965 0.0000 -0.0000 0.0000 0.0000 0.0000 -0.0000 4.6287 -10.1018 0.0262 14.9860 0.0000 0.0000 -15.0848 1.1292 -4.9379 -0.0000 0.0000 0.9378 -4.7418 -1.7664 1.7540 10.5099 0.0000 0.0000 -12.4375 4.1741 7.0762 -0.0000 0.0000 0.8037
 -0.2144 38.2054 -0.8111 -89.9248 -0.2401 -0.3378 -0.2744 0.0100 0.3513 -0.6970 0.0002 0.0592 1.6969 0.3400 0.5887 0.1762 -0.0850 -0.3911 -1.1810 -0.1941 -0.0013 -1.0291 -1.0994 -0.2384 -0.3761 4.6634 -5.9042 -69.3677 -1.8073 20.7522 -0.0000 0.0000 31.1624 -4.6976 -0.0000 -0.0000 -0.4324 7.9338 3.1298 0.0000 0.0000 -0.0000 0.0000 -0.0000 -0.0000 2.4980 5.5785 5.8167 72.3745 -11.6043 36.6800 -0.0000 0.0000 -19.2811 -4.4948 0.0000 -0.0000 0.3994 -21.1037 1.1093 0.0000 0.0000 0.0000 -0.0000 -0.0000 0.0000 4.6289 -10.0917 0.0018 15.0028 0.0000 0.0000 -15.0932 1.1203 -4.9420 0.0000 0.0000 0.9569 -4.7400 -1.7792 1.7362 10.5120 -0.0000 0.0000 -12.4406 4.1864 7.1035 -0.0000 0.0000 0.8087
 -0.2137 38.2068 -0.8064 -89.9018 -0.2449 -0.3465 -0.2725 0.0110 0.3526 -0.6934 0.0012 0.0594 1.6799 0.3594 0.5985 0.1726 -0.0774 -0.3822 -1.1786 -0.2120 -0.0292 -1.0217 -1.1024 -0.2085 -0.3124 4.5882 -5.8870 -69.3882 -1.9253 20.6697 0.0000 0.0000 31.1557 -5.0797 0.0000 -0.0000 -0.4669 7.7369 3.4641 -0.0000 0.0000 -0.0000 0.0000 -0.0000 -0.0000 2.4937 5.5598 5.7482 72.4293 -11.5870 36.1229 0.0000 -0.0000 -19.3591 -4.4488 0.0000 -0.0000 0.4248 -20.2531 1.2269 -0.0000 0.0000 -0.0000 -0.0000 0.0000 -0.0000 4.6374 -10.0984 -0.0276 15.0256 -0.0000 0.0000 -15.1014 1.1251 -4.9804 -0.0000 0.0000 0.9306 -4.7280 -1.7789 1.7174 10.5175 0.0000 0.0000 -12.4396 4.1923 7.0874 -0.0000 0.0000 0.8012
 -0.2141 38.2117 -0.8013 -89.8771 -0.2471 -0.3367 -0.2699 0.0128 0.3489 -0.6886 0.0022 0.0512 1.6611 0.3878 0.6103 0.1674 -0.0718 -0.3961 -1.1846 -0.2127 -0.0324 -1.0012 -1.1271 -0.1777 -0.4169 4.6915 -5.9014 -69.3348 -1.7802 20.7439 -0.0000 -0.0000 31.1432 -4.9349 0.0000 -0.0000 -0.4561 7.9602 3.2902 -0.0000 0.0000 -0.0000 -0.0000 0.0000 -0.0000 2.4791 5.5693 5.7862 72.4032 -11.6115 36.0431 -0.0000 0.0000 -19.3531 -4.5258 0.0000 -0.0000 0.4086 -20.2223 1.1819 0.0000 0.0000 0.0000 -0.0000 -0.0000 0.0000 4.6169 -10.0778 -0.0545 15.0380 0.0000 0.0000 -15.1009 1.1034 -4.9921 -0.0000 0.0000 0.9293 -4.7389 -1.7982 1.7019 10.5154 0.0000 0.0000 -12.4451 4.2261 7.0978 -0.0000 0.0000 0.8301
 -0.2156 38.2150 -0.7990 -89.8336 -0.2448 -0.3259 -0.2674 0.0157 0.3474 -0.6797 0.0025 0.0335 1.6150 0.4363 0.6332 0.1637 -0.0758 -0.3980 -1.2030 -0.1897 -0.0798 -0.9538 -1.1917 -0.1265 -0.4029 4.5935 -5.8920 -69.3410 -1.9233 20.6932 -0.0000 -0.0000 31.1504 -4.8283 0.0000 -0.0000 -0.4484 7.9346 3.2447 0.0000 -0.0000 -0.0000 0.0000 -0.0000 0.0000 2.4423 5.6163 5.8903 72.3266 -11.6770 36.4856 -0.0000 0.0000 -19.2411 -4.6161 0.0000 -0.0000 0.3560 -21.1332 0.9875 -0.0000 0.0000 -0.0000 -0.0000 0.0000 -0.0000 4.5888 -10.0568 -0.1128 15.0677 -0.0000 0.0000 -15.1072 1.0760 -4.9722 -0.0000 0.0000 0.9516 -4.7565 -1.7847 1.6480 10.5383 0.0000 0.0000 -12.4426 4.2092 7.1060 -0.0000 0.0000 0.7712
 -0.2129 38.2142 -0.7912 -89.8295 -0.2553 -0.3352 -0.2656 0.0163 0.3545 -0.6769 0.0040 0.0447 1.6189 0.4316 0.6022 0.1577 -0.0533 -0.4026 -1.1889 -0.2197 -0.0215 -0.9784 -1.1541 -0.1495 -0.3881 4.5684 -5.8441 -69.3527 -1.9605 20.6760 -0.0000 0.0000 31.1636 -4.6142 0.0000 -0.0000 -0.4372 7.9679 3.1508 -0.0000 0.0000 0.0000 0.0000 -0.0000 -0.0000 2.4358 5.5972 5.8701 72.3602 -11.6473 36.0615 -0.0000 0.0000 -19.3214 -4.5341 0.0000 -0.0000 0.4167 -20.4205 1.1940 0.0000 0.0000 0.0000 -0.0000 -0.0000 -0.0000 4.6089 -10.0886 -0.1107 15.0763 0.0000 0.0000 -15.1171 1.1202 -4.9707 -0.0000 0.0000 0.9405 -4.7371 -1.8045 1.6714 10.5158 0.0000 0.0000 -12.4381 4.2404 7.0836 -0.0000 0.0000 0.7804
 -0.2071 38.2108 -0.7813 -89.8320 -0.2738 -0.3703 -0.2742 0.0151 0.3474 -0.6886 0.0027 0.0287 1.6510 0.4524 0.6559 0.1711 -0.0799 -0.3869 -1.2137 -0.1493 -0.0254 -0.9753 -1.1698 -0.1710 -0.3657 4.5592 -5.8681 -69.3194 -1.9367 20.6964 -0.0000 -0.0000 31.1531 -4.9270 -0.0000 -0.0000 -0.4572 7.7381 3.3915 0.0000 -0.0000 -0.0000 0.0000 -0.0000 -0.0000 2.4902 5.5485 5.8126 72.4081 -11.6230 35.9412 0.0000 -0.0000 -19.3408 -4.3741 0.0000 -0.0000 0.4753 -20.1688 1.3783 0.0000 -0.0000 0.0000 -0.0000 -0.0000 0.0000 4.6747 -10.1511 -0.0912 15.0758 -0.0000 0.0000 -15.1274 1.2053 -4.9916 0.0000 0.0000 0.9658 -4.6855 -1.8010 1.7143 10.4738 -0.0000 0.0000 -12.4270 4.2595 7.0695 -0.0000 0.0000 0.7887
 -0.2034 38.2087 -0.7759 -89.8216 -0.2846 -0.3977 -0.2892 0.0137 0.3499 -0.7147 0.0019 0.0312 1.7004 0.4320 0.6478 0.1788 -0.0797 -0.3880 -1.2077 -0.1281 0.0790 -1.0203 -1.1356 -0.2369 -0.4055 4.6403 -5.8556 -69.2881 -1.7647 20.8979 -0.0000 -0.0000 31.1149 -4.3432 -0.0000 0.0000 -0.4282 8.1735 3.0090 -0.0000 -0.0000 0.0000 -0.0000 0.0000 -0.0000 2.5297 5.5550 5.9168 72.3325 -11.6640 36.4201 -0.0000 -0.0000 -19.2668 -4.3371 -0.0000 0.0000 0.4719 -20.9654 1.3185 0.0000 0.0000 0.0000 -0.0000 -0.0000 0.0000 4.7207 -10.1909 -0.0923 15.0758 0.0000 0.0000 -15.1246 1.2536 -5.0000 -0.0000 0.0000 0.9200 -4.6451 -1.7910 1.7192 10.4622 0.0000 0.0000 -12.4249 4.2656 7.0325 -0.0000 0.0000 0.7861
